<?xml version="1.0" encoding="UTF-8"?>
<svg xmlns="http://www.w3.org/2000/svg" xmlns:xlink="http://www.w3.org/1999/xlink" width="64px" height="64px" viewBox="0 0 64 64" version="1.1">
<g id="surface1">
<path style=" stroke:none;fill-rule:nonzero;fill:rgb(92.156863%,52.54902%,74.901961%);fill-opacity:1;" d="M 64 32 C 64 49.675781 49.675781 64 32 64 C 14.324219 64 0 49.675781 0 32 C 0 14.328125 14.324219 0 32 0 C 49.675781 0 64 14.328125 64 32 Z M 64 32 "/>
<path style=" stroke:none;fill-rule:nonzero;fill:rgb(83.921569%,43.921569%,67.843137%);fill-opacity:1;" d="M 62.367188 42.117188 C 62.140625 41.90625 53.976562 33.714844 53.914062 33.652344 C 53.558594 33.226562 53.019531 32.875 52.277344 32.613281 L 27.121094 22.988281 C 26.828125 22.875 26.511719 22.917969 26.257812 23.089844 C 26.003906 23.265625 25.851562 23.550781 25.851562 23.859375 C 25.851562 24.804688 24.316406 25.761719 20.878906 25.761719 C 19.824219 25.761719 18.851562 25.613281 18.042969 25.371094 C 18.019531 25.339844 17.988281 25.316406 17.960938 25.296875 C 17.933594 25.261719 17.898438 25.234375 17.867188 25.207031 C 17.824219 25.160156 15.957031 23.289062 15.886719 23.234375 C 15.835938 23.164062 15.773438 23.105469 15.703125 23.050781 C 15.535156 22.824219 15.277344 22.671875 14.96875 22.671875 L 12.753906 22.671875 C 10.839844 22.671875 9.605469 24.007812 9.605469 26.082031 L 9.605469 40.402344 C 9.605469 40.707031 9.761719 40.964844 9.988281 41.136719 C 10.042969 41.207031 31.320312 62.691406 31.730469 63.089844 C 32.035156 63.398438 32.339844 63.699219 32.648438 63.992188 C 46.503906 63.714844 58.195312 54.636719 62.367188 42.117188 Z M 62.367188 42.117188 "/>
<path style=" stroke:none;fill-rule:nonzero;fill:rgb(95.686275%,96.470588%,97.647059%);fill-opacity:1;" d="M 52.265625 32.609375 L 27.113281 22.988281 C 26.824219 22.875 26.503906 22.917969 26.25 23.089844 C 26 23.265625 25.847656 23.550781 25.847656 23.859375 C 25.847656 24.804688 24.308594 25.757812 20.875 25.757812 C 18.132812 25.757812 15.902344 24.792969 15.902344 23.601562 C 15.902344 23.085938 15.484375 22.671875 14.96875 22.671875 L 12.753906 22.671875 C 10.839844 22.671875 9.605469 24.007812 9.605469 26.078125 L 9.605469 40.398438 C 9.605469 40.914062 10.023438 41.328125 10.539062 41.328125 L 53.460938 41.328125 C 53.976562 41.328125 54.394531 40.914062 54.394531 40.398438 L 54.394531 34.960938 C 54.394531 33.90625 53.671875 33.113281 52.265625 32.609375 Z M 52.433594 34.800781 L 32.9375 34.800781 C 32.949219 34.019531 33.097656 33.867188 34.164062 33.867188 L 40.066406 33.867188 C 41.332031 33.867188 42.609375 32.421875 43.148438 31.117188 L 51.617188 34.359375 C 52.066406 34.519531 52.3125 34.671875 52.433594 34.800781 Z M 12.753906 24.535156 L 14.191406 24.535156 C 14.832031 26.394531 17.402344 27.625 20.875 27.625 C 25.265625 27.625 26.855469 26.246094 27.417969 25.101562 L 31.019531 26.476562 L 29.824219 27.625 C 29.453125 27.984375 29.441406 28.574219 29.800781 28.945312 C 29.984375 29.136719 30.226562 29.234375 30.472656 29.234375 C 30.703125 29.234375 30.9375 29.148438 31.117188 28.972656 L 32.941406 27.214844 L 34.21875 27.703125 L 33.523438 28.359375 C 33.148438 28.714844 33.128906 29.304688 33.484375 29.679688 C 33.667969 29.875 33.914062 29.972656 34.164062 29.972656 C 34.394531 29.972656 34.621094 29.886719 34.804688 29.71875 L 36.15625 28.445312 L 41.421875 30.457031 C 41.128906 31.125 40.40625 31.960938 40.066406 32 L 34.164062 32 C 32.863281 32 31.148438 32.300781 31.074219 34.800781 L 17.300781 34.800781 C 16.863281 31.894531 14.367188 29.386719 11.472656 28.929688 L 11.472656 26.078125 C 11.472656 24.535156 12.402344 24.535156 12.753906 24.535156 Z M 11.472656 30.820312 C 13.359375 31.246094 15 32.90625 15.410156 34.800781 L 11.472656 34.800781 Z M 11.472656 39.464844 L 11.472656 36.664062 L 52.527344 36.664062 L 52.527344 39.464844 Z M 11.472656 39.464844 "/>
</g>
</svg>
